<?xml version="1.0" standalone="no"?><!DOCTYPE svg PUBLIC "-//W3C//DTD SVG 1.1//EN"
    "http://www.w3.org/Graphics/SVG/1.1/DTD/svg11.dtd" >
<svg xmlns="http://www.w3.org/2000/svg" xmlns:xlink="http://www.w3.org/1999/xlink" version="1.1"
    viewBox="-10 0 1613 1024">
    <g id="theme_color" transform="matrix(1 0 0 -1 0 960)">
        <path fill="#00FF00" d="M114 910q-24 0 -40.5 -16.5t-16.5 -40.5v-682q0 -24 16.5 -40.5t40.5 -16.5h1365q24 0 40.5 16.5t16.5 40.5v682q0 24 -16.5 40.5t-40.5 16.5h-1365zM114 967h1365q46 0 80 -33.5t34 -80.5v-682q0 -46 -33.5 -80t-80.5 -34h-1365q-46 0 -80 33.5t-34 80.5v682q0 46 34 80
t80 34zM181 258q46 81 50 244h46q-2 -59 -10 -110q22 -47 58 -78v226h-142v45h123v87h-101v45h101v87h48v-87h91v-45h-91v-87h99v-45h-82v-95h88v-43h-88v-116q44 -18 101 -19q118 -2 317 4q-10 -28 -17 -49q-182 0 -315 2q-148 4 -200 107q-17 -80 -48 -131q-13 30 -28 58z
M461 736v40h292q-4 -83 -9 -139q-8 -70 -72 -72q-32 -1 -77 2q-4 23 -9 48q46 -8 78 -6q35 1 37 40q6 35 6 87h-116q-6 -137 -103 -194q-11 18 -29 40q85 46 86 154h-84zM490 523h255v-218h-44v26h-165v-30h-46v222zM701 483h-165v-109h165v109zM804 602l32 35
q56 -39 105 -79q-23 -25 -36 -38q-56 49 -101 82zM825 226q36 114 62 235q27 -10 50 -19q-29 -115 -59 -233zM829 760l31 35q40 -29 105 -88q-21 -21 -37 -35q-61 59 -99 88zM965 593h201v40h-161v40h161v40h-182v40h182v56h47v-56h190v-40h-190v-40h174v-40h-174v-40h202
v-39h-450v39zM1053 207h-45v311h361v-240q-1 -64 -65 -66h-102q-2 18 -9 48q57 -5 93 -5q39 0 36 31v32h-269v-111zM1322 478h-269v-42h269v42zM1053 357h269v41h-269v-41z" />
    </g>
</svg>
